<svg width="120" height="120" viewBox="0 0 120 120" fill="none" xmlns="http://www.w3.org/2000/svg">
<g clip-path="url(#clip0_518_241)">
<path d="M118.022 2.1687H1.97803V117.831H118.022V2.1687Z" fill="#010B13" stroke="url(#paint0_linear_518_241)" stroke-width="4"/>
<path d="M95.2637 29.9156H0.318604V119.554H95.2637V29.9156Z" fill="#FBFBFF" stroke="black" stroke-width="2"/>
<path d="M95.2639 28.9156H13.5056V118.554H95.2639V28.9156Z" fill="#20BF55" stroke="black" stroke-width="2"/>
<path d="M118.681 1.4458H25.0549V91.0844H118.681V1.4458Z" fill="#FBFBFF" stroke="black" stroke-width="2"/>
<path d="M107 3H25V100H107V3Z" fill="#01BAEF" stroke="black" stroke-width="2"/>
<path d="M67.9174 41.9277C69.7741 41.9277 71.0259 42.3133 71.673 43.0844C72.3201 43.8554 72.6436 45.3821 72.6436 47.6646V51.042C72.6436 52.8 72.306 54.08 71.6308 54.8819C71.2932 55.2829 70.8432 55.6685 70.2805 56.0386C69.746 56.4087 69.0848 56.8559 68.2972 57.3803L58.9715 63.7648V73.4805H61.7143V76.6265H52.8528V73.4805H55.5112V45.12H52.8528V41.9277H67.9174ZM69.5631 45.12H58.9715V60.0636L69.5631 52.8926V45.12ZM84.3218 73.4805H88.9635V67.6974H75.5868L88.9214 41.9277H92.3394V64.5513H95.3776V67.6974H92.3394V73.4805H95.3776V76.6265H84.3218V73.4805ZM88.9635 48.8212L80.7772 64.5513H88.9635V48.8212Z" fill="#060505"/>
</g>
<defs>
<linearGradient id="paint0_linear_518_241" x1="-6.54539" y1="-6.84565" x2="147.366" y2="74.9476" gradientUnits="userSpaceOnUse">
<stop offset="0.119792"/>
<stop offset="0.84375" stop-color="#6FC3DF"/>
<stop offset="1" stop-color="#20BF55"/>
</linearGradient>
<clipPath id="clip0_518_241">
<rect width="120" height="120" fill="white"/>
</clipPath>
</defs>
</svg>
